<?xml version="1.0" encoding="utf-8"?>
<!-- Generator: Adobe Illustrator 16.0.0, SVG Export Plug-In . SVG Version: 6.00 Build 0)  -->
<!DOCTYPE svg PUBLIC "-//W3C//DTD SVG 1.0//EN" "http://www.w3.org/TR/2001/REC-SVG-20010904/DTD/svg10.dtd">
<svg version="1.0" id="Layer_1" xmlns="http://www.w3.org/2000/svg" xmlns:xlink="http://www.w3.org/1999/xlink" x="0px" y="0px"
	 width="100px" height="100px" viewBox="0 0 100 100" enable-background="new 0 0 100 100" xml:space="preserve">
<path fill="#00BFA5" d="M50,10c-16.568,0-30,13.432-30,30v30c0,11.045,8.952,20,20,20c22.09,0,40-22.396,40-50
	C80,23.432,66.568,10,50,10z M40,83.334c-7.352,0-13.333-5.98-13.333-13.334V40c0-12.868,10.469-23.333,23.333-23.333
	S73.333,27.132,73.333,40C73.333,63.893,58.379,83.334,40,83.334z"/>
<path fill="#F44336" d="M50,23.333c-9.206,0-16.667,7.461-16.667,16.667c0,4.604,1.865,8.77,4.883,11.783l4.714-4.713
	C41.12,45.26,40,42.76,40,40c5.521,0,10,4.477,10,10s-4.479,10-10,10h-6.667v6.666H40c9.206,0,16.667-7.461,16.667-16.666
	c0-8.385-6.211-15.257-14.271-16.426C44.229,31.406,46.938,30,50,30c5.521,0,10,4.477,10,10h6.667
	C66.667,30.794,59.206,23.333,50,23.333z"/>
</svg>
